<svg width="90" height="29" viewBox="0 0 90 29" fill="none" xmlns="http://www.w3.org/2000/svg">
<path d="M89.1853 3.86595C89.6867 4.09752 89.9054 4.6917 89.6739 5.19309L85.9003 13.3638C85.6687 13.8652 85.0745 14.0839 84.5731 13.8523C84.0717 13.6208 83.853 13.0266 84.0846 12.5252L87.4389 5.26236L80.1761 1.90804C79.6747 1.67647 79.4559 1.08229 79.6875 0.580897C79.9191 0.079504 80.5132 -0.139233 81.0146 0.0923348L89.1853 3.86595ZM0.999431 10.1612L1.99881 10.1261C2.29158 18.4586 5.22494 22.9296 9.82479 25.0127C14.5668 27.1601 21.3477 26.9106 29.625 25.0528C37.8602 23.2043 47.3673 19.8157 57.4342 15.9203C67.4695 12.0371 78.0881 7.63906 88.4205 3.83537L88.766 4.7738L89.1115 5.71223C78.7899 9.51193 68.2612 13.8752 58.1559 17.7855C48.0822 21.6835 38.4553 25.1205 30.063 27.0042C21.7126 28.8785 14.3725 29.2677 8.99974 26.8346C3.48481 24.3371 0.309666 19.0084 4.74088e-05 10.1964L0.999431 10.1612Z" fill="black"/>
</svg>
